<svg width="38" height="38" viewBox="0 0 38 38" fill="none" xmlns="http://www.w3.org/2000/svg">
<g id="Group 1000003046">
<g id="Group 3">
<g id="Group 2">
<g id="Group 1">
<g id="Ellipse 6">
<mask id="path-1-inside-1_711_1447" fill="white">
<path d="M18.9041 29.732C18.9041 30.6802 18.1319 31.461 17.1927 31.3305C15.4788 31.0924 13.8269 30.4982 12.3461 29.579C10.377 28.3568 8.78868 26.6087 7.76024 24.5318C6.7318 22.455 6.30419 20.1321 6.52566 17.8252C6.74712 15.5182 7.60885 13.3191 9.01361 11.4758C10.4184 9.63257 12.3103 8.21855 14.4759 7.39328C16.6415 6.56801 18.9947 6.36434 21.2699 6.80524C23.5451 7.24614 25.6518 8.31407 27.3524 9.88855C28.6314 11.0727 29.6423 12.5078 30.3264 14.0972C30.7013 14.9682 30.1532 15.9198 29.2389 16.1712C28.3247 16.4227 27.3939 15.8744 26.9737 15.0244C26.4894 14.0447 25.8286 13.1571 25.0197 12.4081C23.7887 11.2684 22.2636 10.4953 20.6166 10.1762C18.9697 9.857 17.2663 10.0044 15.6986 10.6018C14.131 11.1992 12.7614 12.2228 11.7446 13.5571C10.7277 14.8914 10.1039 16.4833 9.94358 18.1533C9.78326 19.8232 10.0928 21.5047 10.8373 23.0081C11.5817 24.5115 12.7315 25.7769 14.1569 26.6617C15.0935 27.243 16.1246 27.6448 17.1977 27.852C18.1286 28.0317 18.9041 28.7839 18.9041 29.732Z"/>
</mask>
<path d="M18.9041 29.732C18.9041 30.6802 18.1319 31.461 17.1927 31.3305C15.4788 31.0924 13.8269 30.4982 12.3461 29.579C10.377 28.3568 8.78868 26.6087 7.76024 24.5318C6.7318 22.455 6.30419 20.1321 6.52566 17.8252C6.74712 15.5182 7.60885 13.3191 9.01361 11.4758C10.4184 9.63257 12.3103 8.21855 14.4759 7.39328C16.6415 6.56801 18.9947 6.36434 21.2699 6.80524C23.5451 7.24614 25.6518 8.31407 27.3524 9.88855C28.6314 11.0727 29.6423 12.5078 30.3264 14.0972C30.7013 14.9682 30.1532 15.9198 29.2389 16.1712C28.3247 16.4227 27.3939 15.8744 26.9737 15.0244C26.4894 14.0447 25.8286 13.1571 25.0197 12.4081C23.7887 11.2684 22.2636 10.4953 20.6166 10.1762C18.9697 9.857 17.2663 10.0044 15.6986 10.6018C14.131 11.1992 12.7614 12.2228 11.7446 13.5571C10.7277 14.8914 10.1039 16.4833 9.94358 18.1533C9.78326 19.8232 10.0928 21.5047 10.8373 23.0081C11.5817 24.5115 12.7315 25.7769 14.1569 26.6617C15.0935 27.243 16.1246 27.6448 17.1977 27.852C18.1286 28.0317 18.9041 28.7839 18.9041 29.732Z" stroke="black" stroke-width="6.63219" mask="url(#path-1-inside-1_711_1447)"/>
</g>
<path id="Vector 3" d="M19.4678 19.0469L17.0139 31.1176" stroke="black" stroke-width="3.3161" stroke-linecap="round"/>
</g>
</g>
<path id="Ellipse 7" d="M37.7403 18.8701C37.7403 29.2918 29.2918 37.7403 18.8701 37.7403C8.44845 37.7403 0 29.2918 0 18.8701C0 8.44845 8.44845 0 18.8701 0C29.2918 0 37.7403 8.44845 37.7403 18.8701ZM3.12264 18.8701C3.12264 27.5672 10.173 34.6176 18.8701 34.6176C27.5672 34.6176 34.6176 27.5672 34.6176 18.8701C34.6176 10.173 27.5672 3.12264 18.8701 3.12264C10.173 3.12264 3.12264 10.173 3.12264 18.8701Z" fill="black"/>
</g>
</g>
</svg>
